<svg width="21" height="21" viewBox="0 0 21 21" fill="none" xmlns="http://www.w3.org/2000/svg">
<path d="M11.9397 3.37011L13.4062 6.32736C13.6062 6.73902 14.1395 7.13388 14.5894 7.20949L17.2475 7.65476C18.9473 7.9404 19.3472 9.18379 18.1224 10.4104L16.0559 12.4939C15.706 12.8467 15.5143 13.5272 15.6226 14.0145L16.2142 16.5937C16.6809 18.6352 15.606 19.4249 13.8145 18.358L11.3231 16.8709C10.8732 16.6021 10.1316 16.6021 9.6733 16.8709L7.18191 18.358C5.39877 19.4249 4.31556 18.6268 4.78218 16.5937L5.37378 14.0145C5.4821 13.5272 5.29045 12.8467 4.94049 12.4939L2.87405 10.4104C1.65752 9.18379 2.04914 7.9404 3.74896 7.65476L6.407 7.20949C6.84861 7.13388 7.38189 6.73902 7.58187 6.32736L9.04837 3.37011C9.84828 1.76547 11.1481 1.76547 11.9397 3.37011Z" fill="#FFAE42" stroke="#FFAE42" stroke-width="1.5" stroke-linecap="round" stroke-linejoin="round"/>
</svg>
